<?xml version="1.0" standalone="no"?>
<!DOCTYPE svg PUBLIC "-//W3C//DTD SVG 20010904//EN"
 "http://www.w3.org/TR/2001/REC-SVG-20010904/DTD/svg10.dtd">
<svg version="1.0" xmlns="http://www.w3.org/2000/svg"
 width="460.000000pt" height="460.000000pt" viewBox="0 0 460.000000 460.000000"
 preserveAspectRatio="xMidYMid meet">

<g transform="translate(0.000000,460.000000) scale(0.100000,-0.100000)"
fill="#000000" stroke="none">
<path d="M2180 3574 c-14 -2 -63 -9 -110 -16 -122 -16 -258 -68 -362 -136 -99
-66 -185 -119 -213 -131 -16 -7 -51 -26 -77 -42 -52 -33 -67 -66 -88 -189 -7
-36 -23 -108 -37 -160 -23 -88 -25 -120 -33 -420 -5 -179 -9 -326 -9 -328 -1
-2 -13 6 -27 17 -15 11 -30 18 -34 16 -8 -5 2 -53 14 -74 4 -5 10 -31 15 -57
8 -39 6 -55 -9 -84 -23 -45 -42 -114 -46 -165 -11 -149 -35 -234 -73 -259 -26
-17 -26 -17 21 -11 35 5 54 2 70 -9 15 -11 18 -16 8 -16 -10 -1 -9 -4 5 -12
29 -17 75 -64 75 -78 0 -6 7 -13 15 -16 8 -3 27 -32 42 -65 15 -32 31 -59 35
-59 4 0 5 -7 2 -15 -4 -9 3 -16 22 -21 35 -9 40 -14 85 -81 39 -58 183 -182
261 -226 80 -44 128 -87 128 -115 0 -24 -28 -84 -42 -90 -5 -2 -8 -12 -8 -21
0 -10 -11 -53 -25 -96 -13 -43 -26 -105 -27 -136 -1 -33 -6 -53 -10 -46 -5 8
-8 7 -8 -6 0 -20 -19 -17 -115 18 -131 49 -295 85 -295 65 0 -17 -32 -82 -37
-76 -4 3 2 21 12 41 11 19 16 38 11 42 -4 4 -42 9 -84 10 -42 1 -67 -1 -55 -5
18 -5 20 -10 12 -22 -9 -13 -11 -13 -16 -1 -4 10 -9 8 -19 -10 -7 -13 -13 -18
-14 -11 0 15 -20 6 -20 -9 0 -6 5 -7 10 -4 5 3 10 -1 10 -9 0 -10 -6 -13 -17
-10 -14 5 -15 4 -4 -4 12 -9 12 -15 -2 -45 -21 -43 -21 -54 -2 -54 9 0 12 4 7
9 -5 5 -3 23 7 44 20 45 34 44 15 -1 -12 -30 -12 -34 1 -29 8 4 15 12 15 19 0
6 7 26 15 43 9 17 18 41 20 53 4 21 25 42 33 34 2 -2 -5 -21 -16 -42 -21 -40
-33 -69 -38 -92 -1 -7 -7 -18 -13 -24 -14 -14 -14 -30 -1 -22 7 5 49 84 55
105 8 31 18 50 26 50 11 0 11 -6 0 -28 -5 -9 -19 -42 -31 -72 -39 -96 -61
-140 -70 -140 -10 0 -3 27 12 47 5 6 5 14 0 17 -5 3 -15 -8 -22 -24 -7 -17
-20 -30 -30 -30 -10 0 -20 -10 -23 -22 -5 -21 -5 -21 7 -5 7 9 19 17 26 17 10
0 9 -4 -1 -17 -13 -15 -12 -15 10 -4 17 9 26 10 34 2 13 -13 16 -13 -58 -17
-91 -5 -145 -15 -139 -25 3 -5 -2 -6 -10 -3 -11 4 -16 0 -16 -10 0 -9 5 -16
11 -16 5 0 7 -5 4 -10 -3 -6 -15 -10 -26 -10 -10 0 -19 -7 -19 -15 0 -20 8
-19 50 4 20 10 68 27 109 36 64 16 84 17 160 6 47 -6 93 -13 101 -15 45 -9 70
-19 70 -27 0 -5 3 -8 8 -7 12 4 102 -24 102 -32 0 -8 49 -25 63 -21 5 1 6 -3
2 -9 -5 -9 0 -11 21 -9 3 0 14 -11 25 -25 20 -25 23 -26 150 -26 95 0 131 3
133 13 2 6 13 43 25 80 24 75 22 135 -6 158 -21 18 -8 160 23 253 14 39 38
120 55 180 16 60 40 132 53 160 54 118 67 155 79 227 12 69 18 80 55 116 40
38 47 41 120 47 43 3 93 11 112 16 77 22 116 11 183 -54 59 -56 116 -106 122
-106 4 0 25 -13 48 -28 63 -42 80 -52 100 -58 9 -4 17 -9 17 -13 0 -3 36 -6
79 -7 44 0 78 2 76 6 -2 3 10 12 27 19 17 8 41 33 57 59 14 25 36 54 48 65 12
11 25 33 29 50 7 34 33 60 82 82 31 14 42 38 22 50 -7 4 -4 18 8 38 11 18 30
58 42 90 13 32 27 52 31 46 5 -8 8 -7 13 2 5 11 7 11 12 2 3 -7 13 -13 22 -13
15 1 15 2 -2 15 -13 10 -16 20 -11 32 8 17 8 17 12 0 7 -27 35 -52 74 -66 31
-11 36 -10 51 10 22 26 24 96 4 136 -27 53 -49 146 -56 242 -11 146 -37 188
-67 110 l-13 -34 5 45 c3 25 8 61 10 80 4 30 3 31 -4 10 -7 -20 -9 -14 -12 35
-1 38 -4 48 -6 28 -2 -18 -8 -33 -12 -33 -4 0 -5 14 -3 31 3 21 1 30 -6 25 -7
-4 -13 6 -16 26 -13 88 -38 294 -46 387 -24 257 -74 429 -206 707 -30 63 -56
81 -139 100 -16 3 -41 14 -55 22 -70 45 -164 93 -269 137 -96 40 -356 66 -481
49z m-625 -564 c114 -15 245 -76 266 -124 5 -11 13 -28 19 -36 26 -41 70 -151
64 -161 -4 -7 -3 -9 2 -6 8 4 116 -252 120 -283 0 -3 8 -21 16 -40 25 -53 32
-73 33 -95 1 -11 9 -37 18 -59 17 -38 13 -74 -5 -42 -5 9 -6 21 -2 28 4 7 3 8
-4 4 -7 -4 -12 -2 -12 5 0 8 -5 7 -17 -2 -14 -12 -16 -12 -9 0 6 9 5 12 -4 9
-7 -2 -14 -16 -16 -31 -1 -15 2 -25 7 -22 5 4 9 -6 10 -22 1 -23 3 -20 14 17
13 44 13 44 14 12 1 -24 5 -31 14 -26 6 4 9 4 5 0 -3 -4 -9 -6 -12 -4 -3 1
-12 -6 -19 -16 -14 -19 -16 -17 -40 30 -36 72 -79 203 -71 217 4 7 3 9 -1 4
-11 -10 -37 51 -28 67 3 6 2 8 -2 4 -10 -10 -56 63 -48 76 4 5 2 7 -3 4 -10
-7 -35 17 -28 26 2 3 1 4 -2 2 -3 -3 -29 9 -57 26 -29 17 -67 39 -85 48 -18 9
-29 20 -25 24 4 4 3 7 -2 6 -39 -8 -66 37 -76 127 -7 69 -37 124 -77 142 -37
17 -50 13 -69 -21 -16 -30 -17 -73 -15 -503 1 -273 6 -499 12 -540 13 -84 58
-240 80 -276 66 -111 177 -161 281 -128 19 6 40 13 48 15 10 3 11 8 3 16 -8 8
-2 19 19 42 33 34 63 86 73 129 4 19 13 27 27 27 18 0 21 5 16 33 -3 24 5 51
36 110 45 85 48 84 62 -8 6 -46 8 -48 22 -30 14 19 13 54 -2 103 -6 18 -4 22
15 22 19 0 21 3 14 33 -4 17 -7 39 -7 47 0 8 -5 19 -11 23 -7 6 -6 7 4 4 8 -2
14 -12 13 -21 -1 -13 4 -16 17 -13 15 4 20 -3 25 -44 13 -95 -9 -181 -88 -337
-23 -46 -42 -68 -67 -81 -87 -46 -219 -111 -225 -111 -3 0 -3 4 0 10 3 6 -1 7
-9 4 -9 -3 -15 -9 -14 -12 2 -21 -6 -21 -41 -1 -23 12 -48 19 -60 16 -12 -3
-19 -2 -16 3 3 4 -6 11 -20 14 -14 4 -25 11 -25 16 0 5 -7 7 -15 4 -9 -4 -15
0 -15 9 0 8 -7 18 -16 21 -8 3 -12 2 -9 -3 3 -5 0 -13 -6 -17 -7 -4 -9 -3 -5
4 3 6 1 14 -5 17 -5 4 -8 13 -5 20 2 7 -2 16 -10 19 -17 6 -18 1 -3 -26 12
-23 -3 -49 -16 -27 -5 8 -4 10 3 5 7 -4 12 -2 12 4 0 6 -6 13 -14 16 -11 4
-13 12 -6 28 5 13 4 29 -1 37 -8 13 -13 5 -10 -14 1 -5 -3 -6 -8 -2 -7 4 -7
15 0 32 7 19 6 30 -5 42 -8 9 -17 38 -21 65 -5 31 -10 43 -16 35 -5 -8 -8 0
-7 21 1 60 -23 284 -33 302 -5 10 -8 30 -8 45 l1 28 8 -30 c8 -33 10 30 14
480 3 270 10 352 41 428 8 20 7 19 100 7z m556 -887 c-12 -20 -14 -14 -5 12 4
9 9 14 11 11 3 -2 0 -13 -6 -23z m820 -65 c0 -7 2 -8 5 -3 4 11 68 11 110 1
14 -4 22 -11 19 -16 -3 -5 5 -14 17 -21 21 -11 22 -11 9 4 -8 10 -9 17 -3 17
6 0 14 -4 17 -10 8 -14 -13 -50 -30 -50 -7 0 -17 -4 -20 -10 -4 -6 1 -7 11 -3
12 4 15 3 10 -5 -4 -7 -13 -12 -21 -12 -8 0 -17 -5 -21 -12 -4 -7 -3 -8 4 -4
7 4 12 2 12 -5 0 -6 -8 -9 -20 -6 -11 3 -18 2 -16 -2 2 -3 -2 -15 -10 -26 -8
-10 -14 -15 -14 -11 0 4 -7 1 -15 -8 -12 -11 -36 -14 -113 -12 -85 2 -103 6
-139 29 -46 29 -55 44 -41 70 7 14 13 16 23 7 14 -12 31 3 21 19 -11 17 67 52
94 41 20 -7 39 -7 34 1 -3 5 -10 7 -15 4 -5 -4 -9 -1 -9 6 0 6 8 9 20 6 11 -3
20 -1 20 3 0 7 10 11 53 19 4 0 7 -5 8 -11z m466 -10 c-3 -8 -6 -5 -6 6 -1 11
2 17 5 13 3 -3 4 -12 1 -19z m-1369 -80 c1 -7 4 -27 8 -44 6 -34 -18 -94 -38
-94 -6 0 -19 -7 -29 -16 -9 -8 -31 -16 -48 -16 -27 -1 -31 -5 -31 -28 0 -15
-6 -33 -14 -39 -8 -7 -17 -23 -20 -37 -7 -28 -13 -26 -66 19 -28 24 -33 35
-33 71 0 35 6 48 39 81 42 42 61 56 122 92 41 24 108 30 110 11z m272 -88 c0
-5 -5 -10 -11 -10 -5 0 -7 5 -4 10 3 6 8 10 11 10 2 0 4 -4 4 -10z m0 -54 c0
-3 -4 -8 -10 -11 -5 -3 -10 -1 -10 4 0 6 5 11 10 11 6 0 10 -2 10 -4z m1103
-96 c3 -11 1 -18 -4 -14 -5 3 -9 12 -9 20 0 20 7 17 13 -6z m-2123 -95 c5 -31
12 -66 16 -77 5 -18 3 -19 -28 -13 -18 4 -34 8 -34 9 -1 0 5 33 14 73 9 39 18
70 20 69 1 -2 7 -29 12 -61z m195 -25 c3 -5 1 -10 -4 -10 -6 0 -11 5 -11 10 0
6 2 10 4 10 3 0 8 -4 11 -10z m1925 -85 c0 -8 -7 -15 -15 -15 -16 0 -20 12 -8
23 11 12 23 8 23 -8z m-2140 -1021 c0 -8 -4 -12 -10 -9 -5 3 -10 10 -10 16 0
5 5 9 10 9 6 0 10 -7 10 -16z m30 -3 c0 -6 -4 -13 -10 -16 -5 -3 -10 -13 -10
-20 0 -8 -18 -56 -41 -107 -46 -107 -56 -142 -37 -135 7 2 12 10 11 16 -2 6 4
11 12 11 9 0 12 -6 9 -15 -4 -8 -11 -15 -17 -15 -6 0 -8 -2 -5 -5 8 -9 38 6
32 16 -3 5 1 9 9 9 8 0 17 -9 20 -19 3 -14 1 -18 -9 -14 -8 3 -14 -1 -14 -8 0
-9 -3 -10 -8 -4 -4 6 -18 11 -32 13 -30 3 -42 20 -29 44 5 10 7 18 4 18 -4 0
3 16 15 35 12 19 19 35 15 35 -3 0 1 7 9 16 14 14 21 35 17 57 0 4 4 7 9 7 6
0 10 6 8 13 -3 15 24 77 34 77 5 0 8 -4 8 -9z m74 -16 c-6 -16 -24 -21 -24 -7
0 11 11 22 21 22 5 0 6 -7 3 -15z m32 -22 c-7 -20 -18 -39 -25 -41 -9 -3 -8 7
3 33 9 21 16 39 16 41 0 2 4 4 9 4 6 0 4 -16 -3 -37z m41 -8 c-17 -35 -28 -31
-16 5 6 16 15 28 19 25 4 -3 3 -16 -3 -30z m-259 5 c-15 -23 -28 -26 -28 -7 0
17 10 27 27 27 11 0 11 -4 1 -20z m293 -7 c-8 -15 -10 -15 -11 -2 0 17 10 32
18 25 2 -3 -1 -13 -7 -23z m-157 -75 c-20 -46 -38 -93 -41 -105 -3 -13 -12
-23 -19 -23 -14 0 -14 3 14 57 14 27 15 33 3 33 -5 0 -16 -18 -25 -40 -16 -40
-36 -54 -36 -25 0 8 4 15 8 15 5 0 17 19 28 41 10 23 20 36 22 30 9 -28 21
-12 51 72 6 15 15 27 20 27 6 0 -6 -37 -25 -82z m233 60 c-3 -8 -6 -5 -6 6 -1
11 2 17 5 13 3 -3 4 -12 1 -19z m-257 -25 c0 -5 -5 -15 -10 -23 -7 -12 -9 -10
-7 8 1 19 17 33 17 15z m100 -64 c-32 -66 -39 -53 -9 15 13 30 26 50 28 44 2
-6 -7 -32 -19 -59z m-32 20 c-6 -19 -14 -36 -18 -39 -9 -7 -26 -47 -29 -70 0
-5 -5 -10 -11 -10 -11 0 -4 21 35 107 28 60 42 68 23 12z m74 -23 c-10 -20
-21 -34 -24 -31 -6 6 4 30 26 63 17 27 15 4 -2 -32z m37 -12 c-7 -16 -18 -43
-25 -59 -7 -17 -18 -43 -24 -59 -6 -16 -13 -27 -15 -24 -3 3 7 34 21 69 15 35
30 75 36 88 5 13 11 21 14 19 2 -3 -1 -18 -7 -34z m51 21 c0 -8 -4 -15 -10
-15 -5 0 -7 7 -4 15 4 8 8 15 10 15 2 0 4 -7 4 -15z m77 -17 c-3 -8 -6 -5 -6
6 -1 11 2 17 5 13 3 -3 4 -12 1 -19z m-116 -84 c-11 -27 -20 -45 -20 -39 -1
14 31 96 36 92 2 -3 -5 -26 -16 -53z m-93 -14 c-12 -29 -24 -48 -26 -42 -4 12
37 106 44 100 2 -3 -6 -29 -18 -58z m143 33 c-12 -20 -14 -14 -5 12 4 9 9 14
11 11 3 -2 0 -13 -6 -23z m-180 -17 c-6 -14 -15 -26 -20 -26 -6 0 -2 13 7 29
20 36 26 34 13 -3z m-57 -30 c-7 -19 16 -32 28 -15 8 12 9 11 5 -1 -2 -8 -12
-16 -23 -18 -15 -2 -20 4 -22 23 -1 14 3 25 8 25 5 0 7 -6 4 -14z m252 -32
c-4 -9 -9 -15 -11 -12 -3 3 -3 13 1 22 4 9 9 15 11 12 3 -3 3 -13 -1 -22z m41
4 c-3 -8 -6 -5 -6 6 -1 11 2 17 5 13 3 -3 4 -12 1 -19z m-136 -31 c-10 -9 -11
-8 -5 6 3 10 9 15 12 12 3 -3 0 -11 -7 -18z m-48 6 c-7 -2 -19 -2 -25 0 -7 3
-2 5 12 5 14 0 19 -2 13 -5z m78 -26 c-10 -9 -11 -8 -5 6 3 10 9 15 12 12 3
-3 0 -11 -7 -18z"/>
<path d="M1695 2710 c-3 -6 1 -7 9 -4 18 7 21 14 7 14 -6 0 -13 -4 -16 -10z"/>
<path d="M1980 2296 c0 -2 8 -10 18 -17 15 -13 16 -12 3 4 -13 16 -21 21 -21
13z"/>
<path d="M2015 2230 c3 -5 8 -10 11 -10 2 0 4 5 4 10 0 6 -5 10 -11 10 -5 0
-7 -4 -4 -10z"/>
<path d="M2006 2187 c3 -10 9 -15 12 -12 3 3 0 11 -7 18 -10 9 -11 8 -5 -6z"/>
<path d="M3015 2039 c-4 -6 -5 -12 -2 -15 2 -3 7 2 10 11 7 17 1 20 -8 4z"/>
<path d="M3056 2002 c-2 -4 4 -8 14 -8 10 0 16 4 14 8 -3 4 -9 8 -14 8 -5 0
-11 -4 -14 -8z"/>
<path d="M2738 1993 c6 -2 18 -2 25 0 6 3 1 5 -13 5 -14 0 -19 -2 -12 -5z"/>
<path d="M2766 1972 c-3 -5 1 -9 9 -9 8 0 12 4 9 9 -3 4 -7 8 -9 8 -2 0 -6 -4
-9 -8z"/>
<path d="M2684 1942 c4 -3 14 -7 22 -8 9 -1 13 0 10 4 -4 3 -14 7 -22 8 -9 1
-13 0 -10 -4z"/>
<path d="M2786 1942 c-3 -4 4 -9 15 -9 23 -2 25 3 4 10 -8 4 -16 3 -19 -1z"/>
<path d="M2856 1898 c3 -5 10 -6 15 -3 13 9 11 12 -6 12 -8 0 -12 -4 -9 -9z"/>
<path d="M2934 1902 c4 -3 14 -7 22 -8 9 -1 13 0 10 4 -4 3 -14 7 -22 8 -9 1
-13 0 -10 -4z"/>
<path d="M2884 1889 c-4 -7 -3 -9 4 -5 6 3 13 2 17 -4 3 -5 18 -9 33 -9 l27 2
-25 4 c-14 3 -30 9 -37 14 -7 7 -14 6 -19 -2z"/>
<path d="M2794 1883 c4 -4 19 -9 34 -11 35 -4 25 5 -12 12 -16 3 -25 2 -22 -1z"/>
<path d="M3387 2211 c-4 -17 -3 -21 5 -13 5 5 8 16 6 23 -3 8 -7 3 -11 -10z"/>
<path d="M1118 513 c7 -3 16 -2 19 1 4 3 -2 6 -13 5 -11 0 -14 -3 -6 -6z"/>
<path d="M1055 439 c-4 -6 -5 -12 -2 -15 2 -3 7 2 10 11 7 17 1 20 -8 4z"/>
<path d="M1075 430 c-3 -5 -1 -10 4 -10 6 0 11 5 11 10 0 6 -2 10 -4 10 -3 0
-8 -4 -11 -10z"/>
<path d="M1100 419 c0 -5 5 -7 10 -4 6 3 10 8 10 11 0 2 -4 4 -10 4 -5 0 -10
-5 -10 -11z"/>
<path d="M1018 413 c7 -3 16 -2 19 1 4 3 -2 6 -13 5 -11 0 -14 -3 -6 -6z"/>
<path d="M1066 402 c-4 -7 -5 -12 -2 -12 2 0 11 -3 20 -6 9 -3 16 -1 16 6 0 6
-4 9 -9 6 -5 -4 -11 -1 -13 6 -3 9 -6 9 -12 0z"/>
<path d="M1020 381 c0 -5 -8 -12 -17 -14 -11 -3 -7 -5 10 -6 15 0 27 3 27 9 0
5 8 7 18 4 14 -5 15 -4 2 5 -18 13 -40 14 -40 2z"/>
<path d="M1066 345 c-3 -8 -1 -15 4 -15 6 0 10 7 10 15 0 8 -2 15 -4 15 -2 0
-6 -7 -10 -15z"/>
<path d="M990 340 c0 -5 5 -10 11 -10 5 0 7 5 4 10 -3 6 -8 10 -11 10 -2 0 -4
-4 -4 -10z"/>
<path d="M1020 340 c0 -6 7 -10 15 -10 8 0 15 2 15 4 0 2 -7 6 -15 10 -8 3
-15 1 -15 -4z"/>
<path d="M1040 310 c-13 -8 -13 -10 2 -10 9 0 20 5 23 10 8 13 -5 13 -25 0z"/>
<path d="M1110 310 c-8 -5 -12 -12 -9 -15 4 -3 12 1 19 10 14 17 11 19 -10 5z"/>
<path d="M1065 280 c-4 -11 -10 -18 -15 -15 -5 3 -12 0 -16 -6 -4 -8 -3 -9 4
-5 8 4 12 0 12 -10 0 -25 16 -6 24 29 7 31 0 37 -9 7z"/>
<path d="M988 283 c7 -3 16 -2 19 1 4 3 -2 6 -13 5 -11 0 -14 -3 -6 -6z"/>
<path d="M968 233 c6 -2 18 -2 25 0 6 3 1 5 -13 5 -14 0 -19 -2 -12 -5z"/>
<path d="M968 213 c7 -3 16 -2 19 1 4 3 -2 6 -13 5 -11 0 -14 -3 -6 -6z"/>
</g>
</svg>
